<?xml version="1.0" encoding="UTF-8" standalone="no"?>
<!DOCTYPE svg PUBLIC "-//W3C//DTD SVG 1.1//EN"
 "http://www.w3.org/Graphics/SVG/1.1/DTD/svg11.dtd">
<!-- Generated by graphviz version 2.38.0 (20140413.2041)
 -->
<!-- Title: %3 Pages: 1 -->
<svg width="558pt" height="45pt"
 viewBox="0.00 0.00 558.07 45.00" xmlns="http://www.w3.org/2000/svg" xmlns:xlink="http://www.w3.org/1999/xlink">
<g id="graph0" class="graph" transform="scale(1 1) rotate(0) translate(4 41)">
<title>%3</title>
<polygon fill="white" stroke="none" points="-4,4 -4,-41 554.067,-41 554.067,4 -4,4"/>
<!-- call_graph_with_parameters.yaml -->
<g id="node1" class="node"><title>call_graph_with_parameters.yaml</title>
<ellipse fill="none" stroke="red" cx="131.938" cy="-18.5" rx="131.877" ry="18"/>
<text text-anchor="middle" x="131.938" y="-14.8" font-family="Times,serif" font-size="14.00">call_graph_with_parameters.yaml</text>
</g>
<!-- build_all&#45;cleanup -->
<g id="node2" class="node"><title>build_all&#45;cleanup</title>
<polygon fill="none" stroke="black" points="299.877,-0.5 299.877,-36.5 404.877,-36.5 404.877,-0.5 299.877,-0.5"/>
<text text-anchor="start" x="307.877" y="-14.8" font-family="Times,serif" font-size="14.00">same&#45;node:True</text>
</g>
<!-- call_graph_with_parameters.yaml&#45;&gt;build_all&#45;cleanup -->
<g id="edge1" class="edge"><title>call_graph_with_parameters.yaml&#45;&gt;build_all&#45;cleanup</title>
<path fill="none" stroke="blue" d="M264.102,-18.5C276.606,-18.5 288.71,-18.5 299.721,-18.5"/>
</g>
<!-- cleanup.yml -->
<g id="node3" class="node"><title>cleanup.yml</title>
<ellipse fill="none" stroke="black" cx="495.472" cy="-18.5" rx="54.6905" ry="18"/>
<text text-anchor="middle" x="495.472" y="-14.8" font-family="Times,serif" font-size="14.00">cleanup.yml</text>
</g>
<!-- build_all&#45;cleanup&#45;&gt;cleanup.yml -->
<g id="edge2" class="edge"><title>build_all&#45;cleanup&#45;&gt;cleanup.yml</title>
<path fill="none" stroke="blue" d="M405.114,-18.5C413.48,-18.5 422.227,-18.5 430.836,-18.5"/>
<polygon fill="blue" stroke="blue" points="430.847,-22.0001 440.847,-18.5 430.847,-15.0001 430.847,-22.0001"/>
</g>
</g>
</svg>
