<?xml version="1.0" encoding="UTF-8" standalone="no"?>
<!DOCTYPE svg PUBLIC "-//W3C//DTD SVG 1.1//EN"
 "http://www.w3.org/Graphics/SVG/1.1/DTD/svg11.dtd">
<!-- Generated by graphviz version 2.38.0 (20140413.2041)
 -->
<!-- Title: %3 Pages: 1 -->
<svg width="576pt" height="95pt"
 viewBox="0.00 0.00 576.00 94.58" xmlns="http://www.w3.org/2000/svg" xmlns:xlink="http://www.w3.org/1999/xlink">
<g id="graph0" class="graph" transform="scale(0.58022 0.58022) rotate(0) translate(4 159)">
<title>%3</title>
<polygon fill="white" stroke="none" points="-4,4 -4,-159 988.727,-159 988.727,4 -4,4"/>
<!-- test/test_analysis/depends_on/a.yml -->
<g id="node1" class="node"><title>test/test_analysis/depends_on/a.yml</title>
<ellipse fill="none" stroke="black" cx="137.788" cy="-83" rx="137.576" ry="18"/>
<text text-anchor="middle" x="137.788" y="-79.3" font-family="Times,serif" font-size="14.00">test/test_analysis/depends_on/a.yml</text>
</g>
<!-- test/test_analysis/depends_on/b.yml -->
<g id="node2" class="node"><title>test/test_analysis/depends_on/b.yml</title>
<ellipse fill="none" stroke="black" cx="492.363" cy="-83" rx="137.576" ry="18"/>
<text text-anchor="middle" x="492.363" y="-79.3" font-family="Times,serif" font-size="14.00">test/test_analysis/depends_on/b.yml</text>
</g>
<!-- test/test_analysis/depends_on/a.yml&#45;&gt;test/test_analysis/depends_on/b.yml -->
<g id="edge1" class="edge"><title>test/test_analysis/depends_on/a.yml&#45;&gt;test/test_analysis/depends_on/b.yml</title>
<path fill="none" stroke="green" d="M275.607,-83C298.117,-83 321.533,-83 344.28,-83"/>
<polygon fill="green" stroke="green" points="344.33,-86.5001 354.33,-83 344.33,-79.5001 344.33,-86.5001"/>
<text text-anchor="start" x="293.576" y="-87.8" font-family="Times,serif" font-weight="bold" font-size="14.00">include</text>
</g>
<!-- test/test_analysis/depends_on/c.yml -->
<g id="node4" class="node"><title>test/test_analysis/depends_on/c.yml</title>
<ellipse fill="none" stroke="black" cx="846.939" cy="-29" rx="137.576" ry="18"/>
<text text-anchor="middle" x="846.939" y="-25.3" font-family="Times,serif" font-size="14.00">test/test_analysis/depends_on/c.yml</text>
</g>
<!-- test/test_analysis/depends_on/b.yml&#45;&gt;test/test_analysis/depends_on/c.yml -->
<g id="edge3" class="edge"><title>test/test_analysis/depends_on/b.yml&#45;&gt;test/test_analysis/depends_on/c.yml</title>
<path fill="none" stroke="green" d="M582.789,-69.3037C632.804,-61.6435 695.254,-52.0786 746.765,-44.1893"/>
<polygon fill="green" stroke="green" points="747.56,-47.6085 756.914,-42.6349 746.5,-40.6892 747.56,-47.6085"/>
<text text-anchor="start" x="648.151" y="-64.8" font-family="Times,serif" font-weight="bold" font-size="14.00">include</text>
</g>
<!-- test/test_analysis/depends_on/e.yml -->
<g id="node5" class="node"><title>test/test_analysis/depends_on/e.yml</title>
<ellipse fill="none" stroke="black" cx="846.939" cy="-94" rx="137.576" ry="18"/>
<text text-anchor="middle" x="846.939" y="-90.3" font-family="Times,serif" font-size="14.00">test/test_analysis/depends_on/e.yml</text>
</g>
<!-- test/test_analysis/depends_on/b.yml&#45;&gt;test/test_analysis/depends_on/e.yml -->
<g id="edge4" class="edge"><title>test/test_analysis/depends_on/b.yml&#45;&gt;test/test_analysis/depends_on/e.yml</title>
<path fill="none" stroke="green" d="M626.657,-87.1586C651.423,-87.9313 677.395,-88.7416 702.451,-89.5233"/>
<polygon fill="green" stroke="green" points="702.645,-93.031 712.749,-89.8446 702.863,-86.0344 702.645,-93.031"/>
<text text-anchor="start" x="648.151" y="-94.8" font-family="Times,serif" font-weight="bold" font-size="14.00">include</text>
</g>
<!-- test/test_analysis/depends_on/d.yml -->
<g id="node3" class="node"><title>test/test_analysis/depends_on/d.yml</title>
<ellipse fill="none" stroke="black" cx="492.363" cy="-18" rx="137.576" ry="18"/>
<text text-anchor="middle" x="492.363" y="-14.3" font-family="Times,serif" font-size="14.00">test/test_analysis/depends_on/d.yml</text>
</g>
<!-- test/test_analysis/depends_on/d.yml&#45;&gt;test/test_analysis/depends_on/c.yml -->
<g id="edge2" class="edge"><title>test/test_analysis/depends_on/d.yml&#45;&gt;test/test_analysis/depends_on/c.yml</title>
<path fill="none" stroke="green" d="M630.374,-17.636C650.753,-17.8884 671.504,-18.3163 691.151,-19 698.909,-19.27 706.883,-19.606 714.926,-19.9897"/>
<polygon fill="green" stroke="green" points="714.977,-23.4965 725.139,-20.4999 715.326,-16.5052 714.977,-23.4965"/>
<text text-anchor="start" x="648.151" y="-23.8" font-family="Times,serif" font-weight="bold" font-size="14.00">include</text>
</g>
<!-- test/test_analysis/depends_on/f.yml -->
<g id="node6" class="node"><title>test/test_analysis/depends_on/f.yml</title>
<ellipse fill="none" stroke="black" cx="137.788" cy="-137" rx="136.476" ry="18"/>
<text text-anchor="middle" x="137.788" y="-133.3" font-family="Times,serif" font-size="14.00">test/test_analysis/depends_on/f.yml</text>
</g>
</g>
</svg>
