<?xml version="1.0" encoding="UTF-8" standalone="no"?>
<!DOCTYPE svg PUBLIC "-//W3C//DTD SVG 1.1//EN"
 "http://www.w3.org/Graphics/SVG/1.1/DTD/svg11.dtd">
<!-- Generated by graphviz version 2.38.0 (20140413.2041)
 -->
<!-- Title: %3 Pages: 1 -->
<svg width="576pt" height="76pt"
 viewBox="0.00 0.00 576.00 76.46" xmlns="http://www.w3.org/2000/svg" xmlns:xlink="http://www.w3.org/1999/xlink">
<g id="graph0" class="graph" transform="scale(0.284252 0.284252) rotate(0) translate(4 265)">
<title>%3</title>
<polygon fill="white" stroke="none" points="-4,4 -4,-265 2022.37,-265 2022.37,4 -4,4"/>
<g id="clust1" class="cluster"><title>cluster_legend_wrapper</title>
</g>
<g id="clust2" class="cluster"><title>cluster_legend</title>
<polygon fill="none" stroke="black" points="81.9896,-116 81.9896,-245 634.509,-245 634.509,-116 81.9896,-116"/>
<text text-anchor="middle" x="358.249" y="-229.8" font-family="Times,serif" font-size="14.00">Legend</text>
</g>
<!-- maxscale_jobs/build_all.yaml -->
<g id="node1" class="node"><title>maxscale_jobs/build_all.yaml</title>
<ellipse fill="none" stroke="red" cx="116.99" cy="-44" rx="116.979" ry="18"/>
<text text-anchor="middle" x="116.99" y="-40.3" font-family="Times,serif" font-size="14.00">maxscale_jobs/build_all.yaml</text>
</g>
<!-- maxscale_jobs/build.yaml -->
<g id="node2" class="node"><title>maxscale_jobs/build.yaml</title>
<ellipse fill="none" stroke="black" cx="599.509" cy="-72" rx="103.982" ry="18"/>
<text text-anchor="middle" x="599.509" y="-68.3" font-family="Times,serif" font-size="14.00">maxscale_jobs/build.yaml</text>
</g>
<!-- maxscale_jobs/build_all.yaml&#45;&gt;maxscale_jobs/build.yaml -->
<g id="edge1" class="edge"><title>maxscale_jobs/build_all.yaml&#45;&gt;maxscale_jobs/build.yaml</title>
<path fill="none" stroke="blue" d="M226.727,-50.3361C305.552,-54.9293 411.677,-61.1132 490.365,-65.6984"/>
<polygon fill="blue" stroke="blue" points="490.606,-69.2183 500.792,-66.306 491.013,-62.2301 490.606,-69.2183"/>
<text text-anchor="start" x="271.979" y="-76.8" font-family="Times,serif" font-size="14.00">call&#45;order:1</text>
<text text-anchor="start" x="259.479" y="-61.8" font-family="Times,serif" font-size="14.00">same&#45;node:True</text>
</g>
<!-- maxscale_jobs/parametrized_triggerred_subjobs_killer.yaml -->
<g id="node3" class="node"><title>maxscale_jobs/parametrized_triggerred_subjobs_killer.yaml</title>
<ellipse fill="none" stroke="black" cx="599.509" cy="-18" rx="225.56" ry="18"/>
<text text-anchor="middle" x="599.509" y="-14.3" font-family="Times,serif" font-size="14.00">maxscale_jobs/parametrized_triggerred_subjobs_killer.yaml</text>
</g>
<!-- maxscale_jobs/build_all.yaml&#45;&gt;maxscale_jobs/parametrized_triggerred_subjobs_killer.yaml -->
<g id="edge2" class="edge"><title>maxscale_jobs/build_all.yaml&#45;&gt;maxscale_jobs/parametrized_triggerred_subjobs_killer.yaml</title>
<path fill="none" stroke="green" d="M186.19,-29.4539C207.189,-25.6054 230.446,-21.9759 251.979,-20 290.226,-16.4904 330.947,-14.6068 370.53,-13.7566"/>
<polygon fill="green" stroke="green" points="370.637,-17.2553 380.567,-13.5623 370.501,-10.2566 370.637,-17.2553"/>
<text text-anchor="start" x="271.979" y="-37.8" font-family="Times,serif" font-size="14.00">call&#45;order:2</text>
<text text-anchor="start" x="251.979" y="-23.8" font-family="Times,serif" font-size="14.00">same&#45;node: </text>
<text text-anchor="start" x="318.979" y="-23.8" font-family="Times,serif" font-size="14.00" fill="red">not set</text>
</g>
<!-- maxscale_jobs/cleanup.yaml -->
<g id="node5" class="node"><title>maxscale_jobs/cleanup.yaml</title>
<ellipse fill="none" stroke="black" cx="1078.13" cy="-72" rx="113.18" ry="18"/>
<text text-anchor="middle" x="1078.13" y="-68.3" font-family="Times,serif" font-size="14.00">maxscale_jobs/cleanup.yaml</text>
</g>
<!-- maxscale_jobs/build.yaml&#45;&gt;maxscale_jobs/cleanup.yaml -->
<g id="edge6" class="edge"><title>maxscale_jobs/build.yaml&#45;&gt;maxscale_jobs/cleanup.yaml</title>
<path fill="none" stroke="green" d="M703.635,-72C777.246,-72 876.57,-72 954.288,-72"/>
<polygon fill="green" stroke="green" points="954.621,-75.5001 964.621,-72 954.621,-68.5001 954.621,-75.5001"/>
<text text-anchor="start" x="863.039" y="-89.8" font-family="Times,serif" font-size="14.00">call&#45;order:1</text>
<text text-anchor="start" x="843.039" y="-75.8" font-family="Times,serif" font-size="14.00">same&#45;node: </text>
<text text-anchor="start" x="910.039" y="-75.8" font-family="Times,serif" font-size="14.00" fill="red">not set</text>
</g>
<!-- maxscale_jobs/remove_lock.yaml -->
<g id="node4" class="node"><title>maxscale_jobs/remove_lock.yaml</title>
<ellipse fill="none" stroke="black" cx="1886.43" cy="-45" rx="131.877" ry="18"/>
<text text-anchor="middle" x="1886.43" y="-41.3" font-family="Times,serif" font-size="14.00">maxscale_jobs/remove_lock.yaml</text>
</g>
<!-- maxscale_jobs/destroy.yaml -->
<g id="node6" class="node"><title>maxscale_jobs/destroy.yaml</title>
<ellipse fill="none" stroke="black" cx="1472.86" cy="-99" rx="111.581" ry="18"/>
<text text-anchor="middle" x="1472.86" y="-95.3" font-family="Times,serif" font-size="14.00">maxscale_jobs/destroy.yaml</text>
</g>
<!-- maxscale_jobs/cleanup.yaml&#45;&gt;maxscale_jobs/destroy.yaml -->
<g id="edge3" class="edge"><title>maxscale_jobs/cleanup.yaml&#45;&gt;maxscale_jobs/destroy.yaml</title>
<path fill="none" stroke="blue" d="M1182.31,-79.0939C1236.76,-82.8373 1303.65,-87.4362 1359.42,-91.2702"/>
<polygon fill="blue" stroke="blue" points="1359.48,-94.7826 1369.7,-91.9768 1359.96,-87.7991 1359.48,-94.7826"/>
<text text-anchor="start" x="1221.72" y="-105.8" font-family="Times,serif" font-size="14.00">call&#45;order:1</text>
<text text-anchor="start" x="1209.22" y="-90.8" font-family="Times,serif" font-size="14.00">same&#45;node:True</text>
</g>
<!-- maxscale_jobs/smart_remove_lock.yaml -->
<g id="node7" class="node"><title>maxscale_jobs/smart_remove_lock.yaml</title>
<ellipse fill="none" stroke="black" cx="1472.86" cy="-45" rx="156.772" ry="18"/>
<text text-anchor="middle" x="1472.86" y="-41.3" font-family="Times,serif" font-size="14.00">maxscale_jobs/smart_remove_lock.yaml</text>
</g>
<!-- maxscale_jobs/cleanup.yaml&#45;&gt;maxscale_jobs/smart_remove_lock.yaml -->
<g id="edge4" class="edge"><title>maxscale_jobs/cleanup.yaml&#45;&gt;maxscale_jobs/smart_remove_lock.yaml</title>
<path fill="none" stroke="blue" d="M1145.67,-57.4625C1165.97,-53.6398 1188.42,-50.0226 1209.22,-48 1240.99,-44.9105 1275.03,-43.2865 1307.71,-42.5574"/>
<polygon fill="blue" stroke="blue" points="1307.88,-46.0548 1317.81,-42.3592 1307.74,-39.0562 1307.88,-46.0548"/>
<text text-anchor="start" x="1221.72" y="-66.8" font-family="Times,serif" font-size="14.00">call&#45;order:2</text>
<text text-anchor="start" x="1209.22" y="-51.8" font-family="Times,serif" font-size="14.00">same&#45;node:True</text>
</g>
<!-- maxscale_jobs/smart_remove_lock.yaml&#45;&gt;maxscale_jobs/remove_lock.yaml -->
<g id="edge5" class="edge"><title>maxscale_jobs/smart_remove_lock.yaml&#45;&gt;maxscale_jobs/remove_lock.yaml</title>
<path fill="none" stroke="blue" d="M1629.75,-45C1667.29,-45 1707.18,-45 1744.02,-45"/>
<polygon fill="blue" stroke="blue" points="1744.32,-48.5001 1754.32,-45 1744.32,-41.5001 1744.32,-48.5001"/>
<text text-anchor="start" x="1659.99" y="-63.8" font-family="Times,serif" font-size="14.00">call&#45;order:1</text>
<text text-anchor="start" x="1647.49" y="-48.8" font-family="Times,serif" font-size="14.00">same&#45;node:True</text>
</g>
<!-- publishers&#45;1 -->
<g id="node8" class="node"><title>publishers&#45;1</title>
<ellipse fill="none" stroke="black" cx="116.99" cy="-196" rx="27" ry="18"/>
</g>
<!-- publishers&#45;2 -->
<g id="node9" class="node"><title>publishers&#45;2</title>
<ellipse fill="none" stroke="black" cx="599.509" cy="-196" rx="27" ry="18"/>
</g>
<!-- publishers&#45;1&#45;&gt;publishers&#45;2 -->
<g id="edge7" class="edge"><title>publishers&#45;1&#45;&gt;publishers&#45;2</title>
<path fill="none" stroke="green" d="M144.166,-196C224.783,-196 469.449,-196 562.272,-196"/>
<polygon fill="green" stroke="green" points="562.309,-199.5 572.309,-196 562.309,-192.5 562.309,-199.5"/>
<text text-anchor="middle" x="303.979" y="-199.8" font-family="Times,serif" font-size="14.00"> &#160;publishers</text>
</g>
<!-- builders&#45;1 -->
<g id="node10" class="node"><title>builders&#45;1</title>
<ellipse fill="none" stroke="black" cx="116.99" cy="-142" rx="27" ry="18"/>
</g>
<!-- builders&#45;2 -->
<g id="node11" class="node"><title>builders&#45;2</title>
<ellipse fill="none" stroke="black" cx="599.509" cy="-142" rx="27" ry="18"/>
</g>
<!-- builders&#45;1&#45;&gt;builders&#45;2 -->
<g id="edge8" class="edge"><title>builders&#45;1&#45;&gt;builders&#45;2</title>
<path fill="none" stroke="blue" d="M144.166,-142C224.783,-142 469.449,-142 562.272,-142"/>
<polygon fill="blue" stroke="blue" points="562.309,-145.5 572.309,-142 562.309,-138.5 562.309,-145.5"/>
<text text-anchor="middle" x="303.979" y="-145.8" font-family="Times,serif" font-size="14.00"> &#160;builders</text>
</g>
</g>
</svg>
