<?xml version="1.0" encoding="UTF-8" standalone="no"?>
<!DOCTYPE svg PUBLIC "-//W3C//DTD SVG 1.1//EN"
 "http://www.w3.org/Graphics/SVG/1.1/DTD/svg11.dtd">
<!-- Generated by graphviz version 2.38.0 (20140413.2041)
 -->
<!-- Title: %3 Pages: 1 -->
<svg width="440pt" height="360pt"
 viewBox="0.00 0.00 439.86 360.00" xmlns="http://www.w3.org/2000/svg" xmlns:xlink="http://www.w3.org/1999/xlink">
<g id="graph0" class="graph" transform="scale(0.275447 0.275447) rotate(0) translate(4 1302.96)">
<title>%3</title>
<polygon fill="white" stroke="none" points="-4,4 -4,-1302.96 1592.88,-1302.96 1592.88,4 -4,4"/>
<!-- maxscale_jobs/include/ci_url_suffix.yaml -->
<g id="node1" class="node"><title>maxscale_jobs/include/ci_url_suffix.yaml</title>
<ellipse fill="none" stroke="black" cx="701.645" cy="-1270.51" rx="159.472" ry="18"/>
<text text-anchor="middle" x="701.645" y="-1266.81" font-family="Times,serif" font-size="14.00">maxscale_jobs/include/ci_url_suffix.yaml</text>
</g>
<!-- maxscale_jobs/include/slave.yaml -->
<g id="node2" class="node"><title>maxscale_jobs/include/slave.yaml</title>
<ellipse fill="none" stroke="black" cx="701.645" cy="-1216.51" rx="131.877" ry="18"/>
<text text-anchor="middle" x="701.645" y="-1212.81" font-family="Times,serif" font-size="14.00">maxscale_jobs/include/slave.yaml</text>
</g>
<!-- maxscale_jobs/include/target.yaml -->
<g id="node3" class="node"><title>maxscale_jobs/include/target.yaml</title>
<ellipse fill="none" stroke="black" cx="701.645" cy="-1162.51" rx="133.776" ry="18"/>
<text text-anchor="middle" x="701.645" y="-1158.81" font-family="Times,serif" font-size="14.00">maxscale_jobs/include/target.yaml</text>
</g>
<!-- maxscale_jobs/include/default_target.yaml -->
<g id="node4" class="node"><title>maxscale_jobs/include/default_target.yaml</title>
<ellipse fill="none" stroke="black" cx="1392.59" cy="-1162.51" rx="163.271" ry="18"/>
<text text-anchor="middle" x="1392.59" y="-1158.81" font-family="Times,serif" font-size="14.00">maxscale_jobs/include/default_target.yaml</text>
</g>
<!-- maxscale_jobs/include/target.yaml&#45;&gt;maxscale_jobs/include/default_target.yaml -->
<g id="edge1" class="edge"><title>maxscale_jobs/include/target.yaml&#45;&gt;maxscale_jobs/include/default_target.yaml</title>
<path fill="none" stroke="green" d="M835.889,-1162.51C945.069,-1162.51 1100.36,-1162.51 1219.04,-1162.51"/>
<polygon fill="green" stroke="green" points="1219.32,-1166.01 1229.32,-1162.51 1219.32,-1159.01 1219.32,-1166.01"/>
<text text-anchor="start" x="1121.81" y="-1167.31" font-family="Times,serif" font-weight="bold" font-size="14.00">include</text>
</g>
<!-- maxscale_jobs/include/default_cmake_debug.yaml -->
<g id="node5" class="node"><title>maxscale_jobs/include/default_cmake_debug.yaml</title>
<ellipse fill="none" stroke="black" cx="1392.59" cy="-622.515" rx="192.266" ry="18"/>
<text text-anchor="middle" x="1392.59" y="-618.815" font-family="Times,serif" font-size="14.00">maxscale_jobs/include/default_cmake_debug.yaml</text>
</g>
<!-- maxscale_jobs/include/old_target.yaml -->
<g id="node6" class="node"><title>maxscale_jobs/include/old_target.yaml</title>
<ellipse fill="none" stroke="black" cx="701.645" cy="-1108.51" rx="149.473" ry="18"/>
<text text-anchor="middle" x="701.645" y="-1104.81" font-family="Times,serif" font-size="14.00">maxscale_jobs/include/old_target.yaml</text>
</g>
<!-- maxscale_jobs/include/default_old_target.yaml -->
<g id="node7" class="node"><title>maxscale_jobs/include/default_old_target.yaml</title>
<ellipse fill="none" stroke="black" cx="1392.59" cy="-1108.51" rx="178.969" ry="18"/>
<text text-anchor="middle" x="1392.59" y="-1104.81" font-family="Times,serif" font-size="14.00">maxscale_jobs/include/default_old_target.yaml</text>
</g>
<!-- maxscale_jobs/include/old_target.yaml&#45;&gt;maxscale_jobs/include/default_old_target.yaml -->
<g id="edge2" class="edge"><title>maxscale_jobs/include/old_target.yaml&#45;&gt;maxscale_jobs/include/default_old_target.yaml</title>
<path fill="none" stroke="green" d="M851.288,-1108.51C954.379,-1108.51 1092.51,-1108.51 1203.3,-1108.51"/>
<polygon fill="green" stroke="green" points="1203.59,-1112.01 1213.59,-1108.51 1203.59,-1105.01 1203.59,-1112.01"/>
<text text-anchor="start" x="1121.81" y="-1113.31" font-family="Times,serif" font-weight="bold" font-size="14.00">include</text>
</g>
<!-- maxscale_jobs/include/maxscale_repo.yaml -->
<g id="node8" class="node"><title>maxscale_jobs/include/maxscale_repo.yaml</title>
<ellipse fill="none" stroke="black" cx="701.645" cy="-1054.51" rx="167.07" ry="18"/>
<text text-anchor="middle" x="701.645" y="-1050.81" font-family="Times,serif" font-size="14.00">maxscale_jobs/include/maxscale_repo.yaml</text>
</g>
<!-- maxscale_jobs/include/value.yaml -->
<g id="node9" class="node"><title>maxscale_jobs/include/value.yaml</title>
<ellipse fill="none" stroke="black" cx="701.645" cy="-1000.51" rx="133.477" ry="18"/>
<text text-anchor="middle" x="701.645" y="-996.815" font-family="Times,serif" font-size="14.00">maxscale_jobs/include/value.yaml</text>
</g>
<!-- maxscale_jobs/include/default_branch.yaml -->
<g id="node10" class="node"><title>maxscale_jobs/include/default_branch.yaml</title>
<ellipse fill="none" stroke="black" cx="1392.59" cy="-1000.51" rx="167.07" ry="18"/>
<text text-anchor="middle" x="1392.59" y="-996.815" font-family="Times,serif" font-size="14.00">maxscale_jobs/include/default_branch.yaml</text>
</g>
<!-- maxscale_jobs/include/value.yaml&#45;&gt;maxscale_jobs/include/default_branch.yaml -->
<g id="edge3" class="edge"><title>maxscale_jobs/include/value.yaml&#45;&gt;maxscale_jobs/include/default_branch.yaml</title>
<path fill="none" stroke="green" d="M835.073,-1000.51C943.126,-1000.51 1096.73,-1000.51 1215.21,-1000.51"/>
<polygon fill="green" stroke="green" points="1215.47,-1004.01 1225.47,-1000.51 1215.47,-997.015 1215.47,-1004.01"/>
<text text-anchor="start" x="1121.81" y="-1005.31" font-family="Times,serif" font-weight="bold" font-size="14.00">include</text>
</g>
<!-- maxscale_jobs/include/build_all/call_build.yaml -->
<g id="node11" class="node"><title>maxscale_jobs/include/build_all/call_build.yaml</title>
<ellipse fill="none" stroke="black" cx="701.645" cy="-946.515" rx="182.768" ry="18"/>
<text text-anchor="middle" x="701.645" y="-942.815" font-family="Times,serif" font-size="14.00">maxscale_jobs/include/build_all/call_build.yaml</text>
</g>
<!-- maxscale_jobs/include/repo_user.yaml -->
<g id="node12" class="node"><title>maxscale_jobs/include/repo_user.yaml</title>
<ellipse fill="none" stroke="black" cx="701.645" cy="-892.515" rx="148.674" ry="18"/>
<text text-anchor="middle" x="701.645" y="-888.815" font-family="Times,serif" font-size="14.00">maxscale_jobs/include/repo_user.yaml</text>
</g>
<!-- maxscale_jobs/include/default_repo_user.yaml -->
<g id="node13" class="node"><title>maxscale_jobs/include/default_repo_user.yaml</title>
<ellipse fill="none" stroke="black" cx="1392.59" cy="-892.515" rx="177.369" ry="18"/>
<text text-anchor="middle" x="1392.59" y="-888.815" font-family="Times,serif" font-size="14.00">maxscale_jobs/include/default_repo_user.yaml</text>
</g>
<!-- maxscale_jobs/include/repo_user.yaml&#45;&gt;maxscale_jobs/include/default_repo_user.yaml -->
<g id="edge4" class="edge"><title>maxscale_jobs/include/repo_user.yaml&#45;&gt;maxscale_jobs/include/default_repo_user.yaml</title>
<path fill="none" stroke="green" d="M850.865,-892.515C954.411,-892.515 1093.46,-892.515 1204.62,-892.515"/>
<polygon fill="green" stroke="green" points="1204.95,-896.015 1214.95,-892.515 1204.95,-889.015 1204.95,-896.015"/>
<text text-anchor="start" x="1121.81" y="-897.315" font-family="Times,serif" font-weight="bold" font-size="14.00">include</text>
</g>
<!-- maxscale_jobs/include/source.yaml -->
<g id="node14" class="node"><title>maxscale_jobs/include/source.yaml</title>
<ellipse fill="none" stroke="black" cx="701.645" cy="-838.515" rx="137.276" ry="18"/>
<text text-anchor="middle" x="701.645" y="-834.815" font-family="Times,serif" font-size="14.00">maxscale_jobs/include/source.yaml</text>
</g>
<!-- maxscale_jobs/include/cnf_file.yaml -->
<g id="node15" class="node"><title>maxscale_jobs/include/cnf_file.yaml</title>
<ellipse fill="none" stroke="black" cx="701.645" cy="-784.515" rx="141.875" ry="18"/>
<text text-anchor="middle" x="701.645" y="-780.815" font-family="Times,serif" font-size="14.00">maxscale_jobs/include/cnf_file.yaml</text>
</g>
<!-- maxscale_jobs/build_all.yaml -->
<g id="node16" class="node"><title>maxscale_jobs/build_all.yaml</title>
<ellipse fill="none" stroke="black" cx="116.99" cy="-653.515" rx="116.979" ry="18"/>
<text text-anchor="middle" x="116.99" y="-649.815" font-family="Times,serif" font-size="14.00">maxscale_jobs/build_all.yaml</text>
</g>
<!-- maxscale_jobs/build_all.yaml&#45;&gt;maxscale_jobs/include/ci_url_suffix.yaml -->
<g id="edge18" class="edge"><title>maxscale_jobs/build_all.yaml&#45;&gt;maxscale_jobs/include/ci_url_suffix.yaml</title>
<path fill="none" stroke="green" d="M117.931,-671.95C118.567,-745.656 129.361,-1023.74 251.979,-1201.51 330.331,-1315.11 511.404,-1305.59 618.021,-1288.23"/>
<polygon fill="green" stroke="green" points="618.822,-1291.64 628.101,-1286.53 617.658,-1284.74 618.822,-1291.64"/>
<text text-anchor="start" x="251.979" y="-1248.31" font-family="Times,serif" font-weight="bold" font-size="14.00">include</text>
</g>
<!-- maxscale_jobs/build_all.yaml&#45;&gt;maxscale_jobs/include/slave.yaml -->
<g id="edge23" class="edge"><title>maxscale_jobs/build_all.yaml&#45;&gt;maxscale_jobs/include/slave.yaml</title>
<path fill="none" stroke="green" d="M118.461,-671.614C121.097,-740.445 138.424,-990.019 251.979,-1148.51 271.004,-1175.07 282.083,-1178.91 312.979,-1189.51 395.728,-1217.92 494.117,-1224.47 571.068,-1224.03"/>
<polygon fill="green" stroke="green" points="571.335,-1227.53 581.3,-1223.93 571.266,-1220.53 571.335,-1227.53"/>
<text text-anchor="start" x="251.979" y="-1187.31" font-family="Times,serif" font-weight="bold" font-size="14.00">include</text>
</g>
<!-- maxscale_jobs/build_all.yaml&#45;&gt;maxscale_jobs/include/target.yaml -->
<g id="edge8" class="edge"><title>maxscale_jobs/build_all.yaml&#45;&gt;maxscale_jobs/include/target.yaml</title>
<path fill="none" stroke="green" d="M118.976,-671.629C123.344,-736.221 145.771,-958.78 251.979,-1097.51 271.396,-1122.88 282.593,-1125.67 312.979,-1135.51 394.365,-1161.88 490.242,-1168.75 566.284,-1168.97"/>
<polygon fill="green" stroke="green" points="566.407,-1172.47 576.404,-1168.96 566.401,-1165.47 566.407,-1172.47"/>
<text text-anchor="start" x="251.979" y="-1134.31" font-family="Times,serif" font-weight="bold" font-size="14.00">include</text>
</g>
<!-- maxscale_jobs/build_all.yaml&#45;&gt;maxscale_jobs/include/old_target.yaml -->
<g id="edge16" class="edge"><title>maxscale_jobs/build_all.yaml&#45;&gt;maxscale_jobs/include/old_target.yaml</title>
<path fill="none" stroke="green" d="M120.39,-671.759C128.861,-730.308 161.854,-916.673 251.979,-1037.51 333.394,-1146.68 509.114,-1140.88 614.873,-1125.54"/>
<polygon fill="green" stroke="green" points="615.518,-1128.98 624.884,-1124.03 614.473,-1122.06 615.518,-1128.98"/>
<text text-anchor="start" x="251.979" y="-1083.31" font-family="Times,serif" font-weight="bold" font-size="14.00">include</text>
</g>
<!-- maxscale_jobs/build_all.yaml&#45;&gt;maxscale_jobs/include/maxscale_repo.yaml -->
<g id="edge24" class="edge"><title>maxscale_jobs/build_all.yaml&#45;&gt;maxscale_jobs/include/maxscale_repo.yaml</title>
<path fill="none" stroke="green" d="M119.612,-671.787C126.768,-739.349 162.236,-973.89 312.979,-1027.51 385.678,-1053.38 470.794,-1061.52 542.723,-1062.61"/>
<polygon fill="green" stroke="green" points="542.745,-1066.11 552.783,-1062.72 542.821,-1059.11 542.745,-1066.11"/>
<text text-anchor="start" x="251.979" y="-1023.31" font-family="Times,serif" font-weight="bold" font-size="14.00">include</text>
</g>
<!-- maxscale_jobs/build_all.yaml&#45;&gt;maxscale_jobs/include/value.yaml -->
<g id="edge6" class="edge"><title>maxscale_jobs/build_all.yaml&#45;&gt;maxscale_jobs/include/value.yaml</title>
<path fill="none" stroke="green" d="M121.311,-671.74C133.481,-732.115 181.966,-924.526 312.979,-973.515 396.589,-1004.78 497.327,-1010.94 575.154,-1009.59"/>
<polygon fill="green" stroke="green" points="575.573,-1013.08 585.494,-1009.37 575.42,-1006.09 575.573,-1013.08"/>
<text text-anchor="start" x="251.979" y="-970.315" font-family="Times,serif" font-weight="bold" font-size="14.00">include</text>
</g>
<!-- maxscale_jobs/build_all.yaml&#45;&gt;maxscale_jobs/include/build_all/call_build.yaml -->
<g id="edge25" class="edge"><title>maxscale_jobs/build_all.yaml&#45;&gt;maxscale_jobs/include/build_all/call_build.yaml</title>
<path fill="none" stroke="green" d="M123.559,-671.792C140.933,-724.872 199.862,-877.895 312.979,-919.515 381.927,-944.883 462.362,-953.555 532.037,-955.144"/>
<polygon fill="green" stroke="green" points="532.174,-958.647 542.236,-955.329 532.301,-951.648 532.174,-958.647"/>
<text text-anchor="start" x="251.979" y="-913.315" font-family="Times,serif" font-weight="bold" font-size="14.00">include</text>
</g>
<!-- maxscale_jobs/build_all.yaml&#45;&gt;maxscale_jobs/include/repo_user.yaml -->
<g id="edge19" class="edge"><title>maxscale_jobs/build_all.yaml&#45;&gt;maxscale_jobs/include/repo_user.yaml</title>
<path fill="none" stroke="green" d="M126.791,-671.64C149.786,-716.442 216.631,-831.24 312.979,-865.515 391.149,-893.323 483.677,-900.644 558.729,-900.745"/>
<polygon fill="green" stroke="green" points="558.74,-904.245 568.73,-900.716 558.72,-897.245 558.74,-904.245"/>
<text text-anchor="start" x="251.979" y="-860.315" font-family="Times,serif" font-weight="bold" font-size="14.00">include</text>
</g>
<!-- maxscale_jobs/build_all.yaml&#45;&gt;maxscale_jobs/include/source.yaml -->
<g id="edge7" class="edge"><title>maxscale_jobs/build_all.yaml&#45;&gt;maxscale_jobs/include/source.yaml</title>
<path fill="none" stroke="green" d="M132.519,-671.572C162.06,-706.663 233.136,-783.111 312.979,-811.515 394.647,-840.567 491.987,-847.259 568.697,-846.716"/>
<polygon fill="green" stroke="green" points="568.941,-850.214 578.901,-846.601 568.862,-843.214 568.941,-850.214"/>
<text text-anchor="start" x="251.979" y="-808.315" font-family="Times,serif" font-weight="bold" font-size="14.00">include</text>
</g>
<!-- maxscale_jobs/build_all.yaml&#45;&gt;maxscale_jobs/include/cnf_file.yaml -->
<g id="edge21" class="edge"><title>maxscale_jobs/build_all.yaml&#45;&gt;maxscale_jobs/include/cnf_file.yaml</title>
<path fill="none" stroke="green" d="M142.684,-671.139C178.326,-695.503 247.158,-738.605 312.979,-757.515 390.392,-779.755 479.912,-787.124 553.41,-788.655"/>
<polygon fill="green" stroke="green" points="553.613,-792.159 563.672,-788.833 553.735,-785.16 553.613,-792.159"/>
<text text-anchor="start" x="251.979" y="-754.315" font-family="Times,serif" font-weight="bold" font-size="14.00">include</text>
</g>
<!-- maxscale_jobs/include/boxes.yaml -->
<g id="node17" class="node"><title>maxscale_jobs/include/boxes.yaml</title>
<ellipse fill="none" stroke="black" cx="701.645" cy="-730.515" rx="134.576" ry="18"/>
<text text-anchor="middle" x="701.645" y="-726.815" font-family="Times,serif" font-size="14.00">maxscale_jobs/include/boxes.yaml</text>
</g>
<!-- maxscale_jobs/build_all.yaml&#45;&gt;maxscale_jobs/include/boxes.yaml -->
<g id="edge5" class="edge"><title>maxscale_jobs/build_all.yaml&#45;&gt;maxscale_jobs/include/boxes.yaml</title>
<path fill="none" stroke="green" d="M169.998,-669.598C208.969,-680.975 263.817,-695.567 312.979,-703.515 393.763,-716.574 485.024,-723.32 558.697,-726.803"/>
<polygon fill="green" stroke="green" points="558.824,-730.312 568.973,-727.273 559.144,-723.319 558.824,-730.312"/>
<text text-anchor="start" x="251.979" y="-704.315" font-family="Times,serif" font-weight="bold" font-size="14.00">include</text>
</g>
<!-- maxscale_jobs/include/remove_strip.yaml -->
<g id="node18" class="node"><title>maxscale_jobs/include/remove_strip.yaml</title>
<ellipse fill="none" stroke="black" cx="701.645" cy="-676.515" rx="161.372" ry="18"/>
<text text-anchor="middle" x="701.645" y="-672.815" font-family="Times,serif" font-size="14.00">maxscale_jobs/include/remove_strip.yaml</text>
</g>
<!-- maxscale_jobs/build_all.yaml&#45;&gt;maxscale_jobs/include/remove_strip.yaml -->
<g id="edge9" class="edge"><title>maxscale_jobs/build_all.yaml&#45;&gt;maxscale_jobs/include/remove_strip.yaml</title>
<path fill="none" stroke="green" d="M230.677,-657.963C318.39,-661.425 441.292,-666.277 539.415,-670.15"/>
<polygon fill="green" stroke="green" points="539.304,-673.648 549.434,-670.546 539.58,-666.654 539.304,-673.648"/>
<text text-anchor="start" x="251.979" y="-664.315" font-family="Times,serif" font-weight="bold" font-size="14.00">include</text>
</g>
<!-- maxscale_jobs/include/cmake_flags.yaml -->
<g id="node19" class="node"><title>maxscale_jobs/include/cmake_flags.yaml</title>
<ellipse fill="none" stroke="black" cx="701.645" cy="-622.515" rx="159.472" ry="18"/>
<text text-anchor="middle" x="701.645" y="-618.815" font-family="Times,serif" font-size="14.00">maxscale_jobs/include/cmake_flags.yaml</text>
</g>
<!-- maxscale_jobs/build_all.yaml&#45;&gt;maxscale_jobs/include/cmake_flags.yaml -->
<g id="edge10" class="edge"><title>maxscale_jobs/build_all.yaml&#45;&gt;maxscale_jobs/include/cmake_flags.yaml</title>
<path fill="none" stroke="green" d="M211.627,-642.932C225.154,-641.636 238.915,-640.444 251.979,-639.515 345.467,-632.867 450.111,-628.713 534.808,-626.178"/>
<polygon fill="green" stroke="green" points="535.143,-629.67 545.036,-625.877 534.937,-622.673 535.143,-629.67"/>
<text text-anchor="start" x="251.979" y="-644.315" font-family="Times,serif" font-weight="bold" font-size="14.00">include</text>
</g>
<!-- maxscale_jobs/include/do_not_destroy_vm.yaml -->
<g id="node20" class="node"><title>maxscale_jobs/include/do_not_destroy_vm.yaml</title>
<ellipse fill="none" stroke="black" cx="701.645" cy="-568.515" rx="184.667" ry="18"/>
<text text-anchor="middle" x="701.645" y="-564.815" font-family="Times,serif" font-size="14.00">maxscale_jobs/include/do_not_destroy_vm.yaml</text>
</g>
<!-- maxscale_jobs/build_all.yaml&#45;&gt;maxscale_jobs/include/do_not_destroy_vm.yaml -->
<g id="edge11" class="edge"><title>maxscale_jobs/build_all.yaml&#45;&gt;maxscale_jobs/include/do_not_destroy_vm.yaml</title>
<path fill="none" stroke="green" d="M163.395,-636.913C202.48,-623.375 260.678,-604.996 312.979,-595.515 377.253,-583.864 448.36,-577.163 511.939,-573.336"/>
<polygon fill="green" stroke="green" points="512.296,-576.821 522.076,-572.746 511.89,-569.833 512.296,-576.821"/>
<text text-anchor="start" x="251.979" y="-613.315" font-family="Times,serif" font-weight="bold" font-size="14.00">include</text>
</g>
<!-- maxscale_jobs/include/build_experimental.yaml -->
<g id="node21" class="node"><title>maxscale_jobs/include/build_experimental.yaml</title>
<ellipse fill="none" stroke="black" cx="701.645" cy="-514.515" rx="182.768" ry="18"/>
<text text-anchor="middle" x="701.645" y="-510.815" font-family="Times,serif" font-size="14.00">maxscale_jobs/include/build_experimental.yaml</text>
</g>
<!-- maxscale_jobs/build_all.yaml&#45;&gt;maxscale_jobs/include/build_experimental.yaml -->
<g id="edge12" class="edge"><title>maxscale_jobs/build_all.yaml&#45;&gt;maxscale_jobs/include/build_experimental.yaml</title>
<path fill="none" stroke="green" d="M140.697,-635.821C175.512,-609.821 245.193,-562.146 312.979,-541.515 376.848,-522.075 449.265,-513.63 514.078,-510.584"/>
<polygon fill="green" stroke="green" points="514.571,-514.066 524.412,-510.141 514.271,-507.073 514.571,-514.066"/>
<text text-anchor="start" x="251.979" y="-568.315" font-family="Times,serif" font-weight="bold" font-size="14.00">include</text>
</g>
<!-- maxscale_jobs/include/use_mariadbd.yaml -->
<g id="node22" class="node"><title>maxscale_jobs/include/use_mariadbd.yaml</title>
<ellipse fill="none" stroke="black" cx="701.645" cy="-460.515" rx="163.571" ry="18"/>
<text text-anchor="middle" x="701.645" y="-456.815" font-family="Times,serif" font-size="14.00">maxscale_jobs/include/use_mariadbd.yaml</text>
</g>
<!-- maxscale_jobs/build_all.yaml&#45;&gt;maxscale_jobs/include/use_mariadbd.yaml -->
<g id="edge13" class="edge"><title>maxscale_jobs/build_all.yaml&#45;&gt;maxscale_jobs/include/use_mariadbd.yaml</title>
<path fill="none" stroke="green" d="M131.061,-635.583C159.253,-598.706 229.98,-515.478 312.979,-487.515 385.191,-463.186 469.143,-455.069 540.421,-453.594"/>
<polygon fill="green" stroke="green" points="540.901,-457.087 550.842,-453.424 540.786,-450.088 540.901,-457.087"/>
<text text-anchor="start" x="251.979" y="-519.315" font-family="Times,serif" font-weight="bold" font-size="14.00">include</text>
</g>
<!-- maxscale_jobs/include/repo_path.yaml -->
<g id="node23" class="node"><title>maxscale_jobs/include/repo_path.yaml</title>
<ellipse fill="none" stroke="black" cx="701.645" cy="-406.515" rx="149.473" ry="18"/>
<text text-anchor="middle" x="701.645" y="-402.815" font-family="Times,serif" font-size="14.00">maxscale_jobs/include/repo_path.yaml</text>
</g>
<!-- maxscale_jobs/build_all.yaml&#45;&gt;maxscale_jobs/include/repo_path.yaml -->
<g id="edge14" class="edge"><title>maxscale_jobs/build_all.yaml&#45;&gt;maxscale_jobs/include/repo_path.yaml</title>
<path fill="none" stroke="green" d="M126.201,-635.249C148.27,-588.932 213.972,-468.121 312.979,-433.515 390.533,-406.407 482.022,-398.979 556.64,-398.642"/>
<polygon fill="green" stroke="green" points="557.055,-402.142 567.054,-398.64 557.054,-395.142 557.055,-402.142"/>
<text text-anchor="start" x="251.979" y="-467.315" font-family="Times,serif" font-weight="bold" font-size="14.00">include</text>
</g>
<!-- maxscale_jobs/include/run_upgrade_test.yaml -->
<g id="node24" class="node"><title>maxscale_jobs/include/run_upgrade_test.yaml</title>
<ellipse fill="none" stroke="black" cx="701.645" cy="-352.515" rx="174.669" ry="18"/>
<text text-anchor="middle" x="701.645" y="-348.815" font-family="Times,serif" font-size="14.00">maxscale_jobs/include/run_upgrade_test.yaml</text>
</g>
<!-- maxscale_jobs/build_all.yaml&#45;&gt;maxscale_jobs/include/run_upgrade_test.yaml -->
<g id="edge15" class="edge"><title>maxscale_jobs/build_all.yaml&#45;&gt;maxscale_jobs/include/run_upgrade_test.yaml</title>
<path fill="none" stroke="green" d="M123.091,-635.364C139.519,-581.144 196.863,-421.534 312.979,-379.515 383.725,-353.914 466.397,-345.494 537.181,-344.144"/>
<polygon fill="green" stroke="green" points="537.587,-347.638 547.535,-343.995 537.486,-340.639 537.587,-347.638"/>
<text text-anchor="start" x="251.979" y="-420.315" font-family="Times,serif" font-weight="bold" font-size="14.00">include</text>
</g>
<!-- maxscale_jobs/include/ci_url.yaml -->
<g id="node25" class="node"><title>maxscale_jobs/include/ci_url.yaml</title>
<ellipse fill="none" stroke="black" cx="701.645" cy="-298.515" rx="134.576" ry="18"/>
<text text-anchor="middle" x="701.645" y="-294.815" font-family="Times,serif" font-size="14.00">maxscale_jobs/include/ci_url.yaml</text>
</g>
<!-- maxscale_jobs/build_all.yaml&#45;&gt;maxscale_jobs/include/ci_url.yaml -->
<g id="edge17" class="edge"><title>maxscale_jobs/build_all.yaml&#45;&gt;maxscale_jobs/include/ci_url.yaml</title>
<path fill="none" stroke="green" d="M121.026,-635.186C132.413,-573.54 178.998,-374.811 312.979,-325.515 395.995,-294.97 495.664,-288.631 573.153,-289.715"/>
<polygon fill="green" stroke="green" points="573.389,-293.22 583.452,-289.904 573.518,-286.221 573.389,-293.22"/>
<text text-anchor="start" x="251.979" y="-365.315" font-family="Times,serif" font-weight="bold" font-size="14.00">include</text>
</g>
<!-- maxscale_jobs/include/repo_password.yaml -->
<g id="node26" class="node"><title>maxscale_jobs/include/repo_password.yaml</title>
<ellipse fill="none" stroke="black" cx="701.645" cy="-244.515" rx="167.07" ry="18"/>
<text text-anchor="middle" x="701.645" y="-240.815" font-family="Times,serif" font-size="14.00">maxscale_jobs/include/repo_password.yaml</text>
</g>
<!-- maxscale_jobs/build_all.yaml&#45;&gt;maxscale_jobs/include/repo_password.yaml -->
<g id="edge20" class="edge"><title>maxscale_jobs/build_all.yaml&#45;&gt;maxscale_jobs/include/repo_password.yaml</title>
<path fill="none" stroke="green" d="M119.404,-635.307C125.87,-566.871 159.344,-326.168 312.979,-271.515 385.678,-245.653 470.794,-237.51 542.723,-236.416"/>
<polygon fill="green" stroke="green" points="542.821,-239.915 552.783,-236.307 542.745,-232.916 542.821,-239.915"/>
<text text-anchor="start" x="251.979" y="-308.315" font-family="Times,serif" font-weight="bold" font-size="14.00">include</text>
</g>
<!-- maxscale_jobs/include/maxadmin_command.yaml -->
<g id="node27" class="node"><title>maxscale_jobs/include/maxadmin_command.yaml</title>
<ellipse fill="none" stroke="black" cx="701.645" cy="-190.515" rx="192.266" ry="18"/>
<text text-anchor="middle" x="701.645" y="-186.815" font-family="Times,serif" font-size="14.00">maxscale_jobs/include/maxadmin_command.yaml</text>
</g>
<!-- maxscale_jobs/build_all.yaml&#45;&gt;maxscale_jobs/include/maxadmin_command.yaml -->
<g id="edge22" class="edge"><title>maxscale_jobs/build_all.yaml&#45;&gt;maxscale_jobs/include/maxadmin_command.yaml</title>
<path fill="none" stroke="green" d="M120.16,-635.223C128.011,-575.659 159.523,-384.001 251.979,-260.515 332.425,-153.069 504.32,-157.579 610.44,-172.653"/>
<polygon fill="green" stroke="green" points="610.095,-176.14 620.5,-174.141 611.12,-169.215 610.095,-176.14"/>
<text text-anchor="start" x="251.979" y="-265.315" font-family="Times,serif" font-weight="bold" font-size="14.00">include</text>
</g>
<!-- maxscale_jobs/include/mail.yaml -->
<g id="node28" class="node"><title>maxscale_jobs/include/mail.yaml</title>
<ellipse fill="none" stroke="black" cx="701.645" cy="-136.515" rx="129.977" ry="18"/>
<text text-anchor="middle" x="701.645" y="-132.815" font-family="Times,serif" font-size="14.00">maxscale_jobs/include/mail.yaml</text>
</g>
<!-- maxscale_jobs/build_all.yaml&#45;&gt;maxscale_jobs/include/mail.yaml -->
<g id="edge26" class="edge"><title>maxscale_jobs/build_all.yaml&#45;&gt;maxscale_jobs/include/mail.yaml</title>
<path fill="none" stroke="green" d="M118.712,-635.362C122.2,-569.624 142.063,-340.466 251.979,-199.515 271.338,-174.69 282.917,-172.858 312.979,-163.515 395.292,-137.931 492.003,-131.159 568.238,-130.793"/>
<polygon fill="green" stroke="green" points="568.383,-134.293 578.379,-130.782 568.375,-127.293 568.383,-134.293"/>
<text text-anchor="start" x="251.979" y="-204.315" font-family="Times,serif" font-weight="bold" font-size="14.00">include</text>
</g>
<!-- maxscale_jobs/include/parametrized_triggerred_subjobs_killer/publisher&#45;trigger&#45;parametrized&#45;builds.yaml -->
<g id="node29" class="node"><title>maxscale_jobs/include/parametrized_triggerred_subjobs_killer/publisher&#45;trigger&#45;parametrized&#45;builds.yaml</title>
<ellipse fill="none" stroke="black" cx="701.645" cy="-82.5147" rx="388.831" ry="18"/>
<text text-anchor="middle" x="701.645" y="-78.8147" font-family="Times,serif" font-size="14.00">maxscale_jobs/include/parametrized_triggerred_subjobs_killer/publisher&#45;trigger&#45;parametrized&#45;builds.yaml</text>
</g>
<!-- maxscale_jobs/build_all.yaml&#45;&gt;maxscale_jobs/include/parametrized_triggerred_subjobs_killer/publisher&#45;trigger&#45;parametrized&#45;builds.yaml -->
<g id="edge27" class="edge"><title>maxscale_jobs/build_all.yaml&#45;&gt;maxscale_jobs/include/parametrized_triggerred_subjobs_killer/publisher&#45;trigger&#45;parametrized&#45;builds.yaml</title>
<path fill="none" stroke="green" d="M118.306,-635.049C120.381,-564.832 135.946,-310.299 251.979,-149.515 270.951,-123.225 282.256,-119.866 312.979,-109.515 330.389,-103.649 348.482,-98.7257 366.915,-94.6107"/>
<polygon fill="green" stroke="green" points="367.842,-97.9914 376.884,-92.4695 366.372,-91.1475 367.842,-97.9914"/>
<text text-anchor="start" x="251.979" y="-154.315" font-family="Times,serif" font-weight="bold" font-size="14.00">include</text>
</g>
<!-- maxscale_jobs/include/workspace&#45;cleanup.yaml -->
<g id="node30" class="node"><title>maxscale_jobs/include/workspace&#45;cleanup.yaml</title>
<ellipse fill="none" stroke="black" cx="701.645" cy="-28.5147" rx="181.968" ry="18"/>
<text text-anchor="middle" x="701.645" y="-24.8147" font-family="Times,serif" font-size="14.00">maxscale_jobs/include/workspace&#45;cleanup.yaml</text>
</g>
<!-- maxscale_jobs/build_all.yaml&#45;&gt;maxscale_jobs/include/workspace&#45;cleanup.yaml -->
<g id="edge28" class="edge"><title>maxscale_jobs/build_all.yaml&#45;&gt;maxscale_jobs/include/workspace&#45;cleanup.yaml</title>
<path fill="none" stroke="green" d="M117.849,-635.319C118.137,-561.325 127.689,-278.355 251.979,-97.5147 329.601,15.4243 508.784,6.76958 615.741,-10.4007"/>
<polygon fill="green" stroke="green" points="615.421,-13.8956 625.86,-12.0851 616.571,-6.9906 615.421,-13.8956"/>
<text text-anchor="start" x="251.979" y="-102.315" font-family="Times,serif" font-weight="bold" font-size="14.00">include</text>
</g>
<!-- maxscale_jobs/include/cmake_flags.yaml&#45;&gt;maxscale_jobs/include/default_cmake_debug.yaml -->
<g id="edge29" class="edge"><title>maxscale_jobs/include/cmake_flags.yaml&#45;&gt;maxscale_jobs/include/default_cmake_debug.yaml</title>
<path fill="none" stroke="green" d="M861.136,-622.515C958.903,-622.515 1085.22,-622.515 1190.06,-622.515"/>
<polygon fill="green" stroke="green" points="1190.13,-626.015 1200.13,-622.515 1190.13,-619.015 1190.13,-626.015"/>
<text text-anchor="start" x="1121.81" y="-627.315" font-family="Times,serif" font-weight="bold" font-size="14.00">include</text>
</g>
<!-- maxscale_jobs/include/default_ci_url.yaml -->
<g id="node31" class="node"><title>maxscale_jobs/include/default_ci_url.yaml</title>
<ellipse fill="none" stroke="black" cx="1392.59" cy="-298.515" rx="163.271" ry="18"/>
<text text-anchor="middle" x="1392.59" y="-294.815" font-family="Times,serif" font-size="14.00">maxscale_jobs/include/default_ci_url.yaml</text>
</g>
<!-- maxscale_jobs/include/ci_url.yaml&#45;&gt;maxscale_jobs/include/default_ci_url.yaml -->
<g id="edge31" class="edge"><title>maxscale_jobs/include/ci_url.yaml&#45;&gt;maxscale_jobs/include/default_ci_url.yaml</title>
<path fill="none" stroke="green" d="M836.298,-298.515C945.423,-298.515 1100.41,-298.515 1218.93,-298.515"/>
<polygon fill="green" stroke="green" points="1219.2,-302.015 1229.2,-298.515 1219.2,-295.015 1219.2,-302.015"/>
<text text-anchor="start" x="1121.81" y="-303.315" font-family="Times,serif" font-weight="bold" font-size="14.00">include</text>
</g>
<!-- maxscale_jobs/include/default_repo_password.yaml -->
<g id="node32" class="node"><title>maxscale_jobs/include/default_repo_password.yaml</title>
<ellipse fill="none" stroke="black" cx="1392.59" cy="-244.515" rx="196.065" ry="18"/>
<text text-anchor="middle" x="1392.59" y="-240.815" font-family="Times,serif" font-size="14.00">maxscale_jobs/include/default_repo_password.yaml</text>
</g>
<!-- maxscale_jobs/include/repo_password.yaml&#45;&gt;maxscale_jobs/include/default_repo_password.yaml -->
<g id="edge30" class="edge"><title>maxscale_jobs/include/repo_password.yaml&#45;&gt;maxscale_jobs/include/default_repo_password.yaml</title>
<path fill="none" stroke="green" d="M868.981,-244.515C964.359,-244.515 1084.87,-244.515 1186.13,-244.515"/>
<polygon fill="green" stroke="green" points="1186.18,-248.015 1196.18,-244.515 1186.18,-241.015 1186.18,-248.015"/>
<text text-anchor="start" x="1121.81" y="-249.315" font-family="Times,serif" font-weight="bold" font-size="14.00">include</text>
</g>
<!-- maxscale_jobs/include/mail_recipients.yaml -->
<g id="node33" class="node"><title>maxscale_jobs/include/mail_recipients.yaml</title>
<ellipse fill="none" stroke="black" cx="1392.59" cy="-136.515" rx="168.97" ry="18"/>
<text text-anchor="middle" x="1392.59" y="-132.815" font-family="Times,serif" font-size="14.00">maxscale_jobs/include/mail_recipients.yaml</text>
</g>
<!-- maxscale_jobs/include/mail.yaml&#45;&gt;maxscale_jobs/include/mail_recipients.yaml -->
<g id="edge32" class="edge"><title>maxscale_jobs/include/mail.yaml&#45;&gt;maxscale_jobs/include/mail_recipients.yaml</title>
<path fill="none" stroke="red" d="M831.826,-136.515C939.441,-136.515 1093.85,-136.515 1213.24,-136.515"/>
<polygon fill="red" stroke="red" points="1213.59,-140.015 1223.59,-136.515 1213.59,-133.015 1213.59,-140.015"/>
<text text-anchor="start" x="1108.31" y="-141.315" font-family="Times,serif" font-weight="bold" font-size="14.00">include&#45;raw</text>
</g>
</g>
</svg>
