<?xml version="1.0" encoding="UTF-8" standalone="no"?>
<!DOCTYPE svg PUBLIC "-//W3C//DTD SVG 1.1//EN"
 "http://www.w3.org/Graphics/SVG/1.1/DTD/svg11.dtd">
<!-- Generated by graphviz version 2.38.0 (20140413.2041)
 -->
<!-- Title: %3 Pages: 1 -->
<svg width="576pt" height="299pt"
 viewBox="0.00 0.00 576.00 299.25" xmlns="http://www.w3.org/2000/svg" xmlns:xlink="http://www.w3.org/1999/xlink">
<g id="graph0" class="graph" transform="scale(0.594939 0.594939) rotate(0) translate(4 499)">
<title>%3</title>
<polygon fill="white" stroke="none" points="-4,4 -4,-499 964.166,-499 964.166,4 -4,4"/>
<g id="clust1" class="cluster"><title>cluster_legend_wrapper</title>
</g>
<g id="clust2" class="cluster"><title>cluster_legend</title>
<polygon fill="none" stroke="black" points="693.53,-302 693.53,-479 866.53,-479 866.53,-302 693.53,-302"/>
<text text-anchor="middle" x="780.03" y="-463.8" font-family="Times,serif" font-size="14.00">Legend</text>
</g>
<!-- maxscale_jobs/build_all.yaml -->
<g id="node1" class="node"><title>maxscale_jobs/build_all.yaml</title>
<ellipse fill="none" stroke="red" cx="343.53" cy="-430" rx="116.979" ry="18"/>
<text text-anchor="middle" x="343.53" y="-426.3" font-family="Times,serif" font-size="14.00">maxscale_jobs/build_all.yaml</text>
</g>
<!-- maxscale_jobs/parametrized_triggerred_subjobs_killer.yaml -->
<g id="node2" class="node"><title>maxscale_jobs/parametrized_triggerred_subjobs_killer.yaml</title>
<ellipse fill="none" stroke="black" cx="225.53" cy="-328" rx="225.56" ry="18"/>
<text text-anchor="middle" x="225.53" y="-324.3" font-family="Times,serif" font-size="14.00">maxscale_jobs/parametrized_triggerred_subjobs_killer.yaml</text>
</g>
<!-- maxscale_jobs/build_all.yaml&#45;&gt;maxscale_jobs/parametrized_triggerred_subjobs_killer.yaml -->
<g id="edge1" class="edge"><title>maxscale_jobs/build_all.yaml&#45;&gt;maxscale_jobs/parametrized_triggerred_subjobs_killer.yaml</title>
<path fill="none" stroke="green" d="M323.513,-412.036C304.272,-395.731 275.02,-370.941 253.484,-352.69"/>
<polygon fill="green" stroke="green" points="255.537,-349.842 245.645,-346.047 251.011,-355.182 255.537,-349.842"/>
<text text-anchor="start" x="322.53" y="-382.8" font-family="Times,serif" font-size="14.00">call&#45;order:1</text>
<text text-anchor="start" x="302.53" y="-368.8" font-family="Times,serif" font-size="14.00">same&#45;node: </text>
<text text-anchor="start" x="369.53" y="-368.8" font-family="Times,serif" font-size="14.00" fill="red">not set</text>
</g>
<!-- maxscale_jobs/build.yaml -->
<g id="node3" class="node"><title>maxscale_jobs/build.yaml</title>
<ellipse fill="none" stroke="black" cx="573.53" cy="-328" rx="103.982" ry="18"/>
<text text-anchor="middle" x="573.53" y="-324.3" font-family="Times,serif" font-size="14.00">maxscale_jobs/build.yaml</text>
</g>
<!-- maxscale_jobs/build_all.yaml&#45;&gt;maxscale_jobs/build.yaml -->
<g id="edge2" class="edge"><title>maxscale_jobs/build_all.yaml&#45;&gt;maxscale_jobs/build.yaml</title>
<path fill="none" stroke="blue" d="M380.739,-412.822C420.69,-395.452 484.222,-367.83 527.341,-349.082"/>
<polygon fill="blue" stroke="blue" points="528.98,-352.186 536.755,-344.989 526.189,-345.767 528.98,-352.186"/>
<text text-anchor="start" x="506.03" y="-382.8" font-family="Times,serif" font-size="14.00">call&#45;order:2</text>
<text text-anchor="start" x="493.53" y="-367.8" font-family="Times,serif" font-size="14.00">same&#45;node:True</text>
</g>
<!-- maxscale_jobs/cleanup.yaml -->
<g id="node5" class="node"><title>maxscale_jobs/cleanup.yaml</title>
<ellipse fill="none" stroke="black" cx="573.53" cy="-222" rx="113.18" ry="18"/>
<text text-anchor="middle" x="573.53" y="-218.3" font-family="Times,serif" font-size="14.00">maxscale_jobs/cleanup.yaml</text>
</g>
<!-- maxscale_jobs/build.yaml&#45;&gt;maxscale_jobs/cleanup.yaml -->
<g id="edge6" class="edge"><title>maxscale_jobs/build.yaml&#45;&gt;maxscale_jobs/cleanup.yaml</title>
<path fill="none" stroke="green" d="M573.53,-309.827C573.53,-293.643 573.53,-269.131 573.53,-250.273"/>
<polygon fill="green" stroke="green" points="577.03,-250.199 573.53,-240.199 570.03,-250.199 577.03,-250.199"/>
<text text-anchor="start" x="593.53" y="-275.8" font-family="Times,serif" font-size="14.00">call&#45;order:1</text>
<text text-anchor="start" x="573.53" y="-261.8" font-family="Times,serif" font-size="14.00">same&#45;node: </text>
<text text-anchor="start" x="640.53" y="-261.8" font-family="Times,serif" font-size="14.00" fill="red">not set</text>
</g>
<!-- maxscale_jobs/remove_lock.yaml -->
<g id="node4" class="node"><title>maxscale_jobs/remove_lock.yaml</title>
<ellipse fill="none" stroke="black" cx="803.53" cy="-18" rx="131.877" ry="18"/>
<text text-anchor="middle" x="803.53" y="-14.3" font-family="Times,serif" font-size="14.00">maxscale_jobs/remove_lock.yaml</text>
</g>
<!-- maxscale_jobs/destroy.yaml -->
<g id="node6" class="node"><title>maxscale_jobs/destroy.yaml</title>
<ellipse fill="none" stroke="black" cx="517.53" cy="-120" rx="111.581" ry="18"/>
<text text-anchor="middle" x="517.53" y="-116.3" font-family="Times,serif" font-size="14.00">maxscale_jobs/destroy.yaml</text>
</g>
<!-- maxscale_jobs/cleanup.yaml&#45;&gt;maxscale_jobs/destroy.yaml -->
<g id="edge3" class="edge"><title>maxscale_jobs/cleanup.yaml&#45;&gt;maxscale_jobs/destroy.yaml</title>
<path fill="none" stroke="blue" d="M564.03,-204.036C555.261,-188.377 542.11,-164.893 532.029,-146.891"/>
<polygon fill="blue" stroke="blue" points="535.016,-145.062 527.076,-138.047 528.909,-148.482 535.016,-145.062"/>
<text text-anchor="start" x="567.03" y="-174.8" font-family="Times,serif" font-size="14.00">call&#45;order:1</text>
<text text-anchor="start" x="554.53" y="-159.8" font-family="Times,serif" font-size="14.00">same&#45;node:True</text>
</g>
<!-- maxscale_jobs/smart_remove_lock.yaml -->
<g id="node7" class="node"><title>maxscale_jobs/smart_remove_lock.yaml</title>
<ellipse fill="none" stroke="black" cx="803.53" cy="-120" rx="156.772" ry="18"/>
<text text-anchor="middle" x="803.53" y="-116.3" font-family="Times,serif" font-size="14.00">maxscale_jobs/smart_remove_lock.yaml</text>
</g>
<!-- maxscale_jobs/cleanup.yaml&#45;&gt;maxscale_jobs/smart_remove_lock.yaml -->
<g id="edge4" class="edge"><title>maxscale_jobs/cleanup.yaml&#45;&gt;maxscale_jobs/smart_remove_lock.yaml</title>
<path fill="none" stroke="blue" d="M610.483,-204.933C650.032,-187.738 712.897,-160.406 756.079,-141.631"/>
<polygon fill="blue" stroke="blue" points="757.745,-144.723 765.52,-137.526 754.954,-138.304 757.745,-144.723"/>
<text text-anchor="start" x="736.03" y="-174.8" font-family="Times,serif" font-size="14.00">call&#45;order:2</text>
<text text-anchor="start" x="723.53" y="-159.8" font-family="Times,serif" font-size="14.00">same&#45;node:True</text>
</g>
<!-- maxscale_jobs/smart_remove_lock.yaml&#45;&gt;maxscale_jobs/remove_lock.yaml -->
<g id="edge5" class="edge"><title>maxscale_jobs/smart_remove_lock.yaml&#45;&gt;maxscale_jobs/remove_lock.yaml</title>
<path fill="none" stroke="blue" d="M803.53,-101.581C803.53,-86.3816 803.53,-64.0669 803.53,-46.4644"/>
<polygon fill="blue" stroke="blue" points="807.03,-46.219 803.53,-36.2191 800.03,-46.2191 807.03,-46.219"/>
<text text-anchor="start" x="816.03" y="-72.8" font-family="Times,serif" font-size="14.00">call&#45;order:1</text>
<text text-anchor="start" x="803.53" y="-57.8" font-family="Times,serif" font-size="14.00">same&#45;node:True</text>
</g>
<!-- publishers&#45;1 -->
<g id="node8" class="node"><title>publishers&#45;1</title>
<ellipse fill="none" stroke="black" cx="800.53" cy="-430" rx="27" ry="18"/>
</g>
<!-- publishers&#45;2 -->
<g id="node9" class="node"><title>publishers&#45;2</title>
<ellipse fill="none" stroke="black" cx="800.53" cy="-328" rx="27" ry="18"/>
</g>
<!-- publishers&#45;1&#45;&gt;publishers&#45;2 -->
<g id="edge7" class="edge"><title>publishers&#45;1&#45;&gt;publishers&#45;2</title>
<path fill="none" stroke="green" d="M800.53,-411.581C800.53,-396.382 800.53,-374.067 800.53,-356.464"/>
<polygon fill="green" stroke="green" points="804.03,-356.219 800.53,-346.219 797.03,-356.219 804.03,-356.219"/>
<text text-anchor="middle" x="832.53" y="-375.3" font-family="Times,serif" font-size="14.00"> &#160;publishers</text>
</g>
<!-- builders&#45;1 -->
<g id="node10" class="node"><title>builders&#45;1</title>
<ellipse fill="none" stroke="black" cx="728.53" cy="-430" rx="27" ry="18"/>
</g>
<!-- builders&#45;2 -->
<g id="node11" class="node"><title>builders&#45;2</title>
<ellipse fill="none" stroke="black" cx="728.53" cy="-328" rx="27" ry="18"/>
</g>
<!-- builders&#45;1&#45;&gt;builders&#45;2 -->
<g id="edge8" class="edge"><title>builders&#45;1&#45;&gt;builders&#45;2</title>
<path fill="none" stroke="blue" d="M728.53,-411.581C728.53,-396.382 728.53,-374.067 728.53,-356.464"/>
<polygon fill="blue" stroke="blue" points="732.03,-356.219 728.53,-346.219 725.03,-356.219 732.03,-356.219"/>
<text text-anchor="middle" x="754.53" y="-375.3" font-family="Times,serif" font-size="14.00"> &#160;builders</text>
</g>
</g>
</svg>
