<?xml version="1.0" encoding="UTF-8" standalone="no"?>
<!DOCTYPE svg PUBLIC "-//W3C//DTD SVG 1.1//EN"
 "http://www.w3.org/Graphics/SVG/1.1/DTD/svg11.dtd">
<!-- Generated by graphviz version 2.38.0 (20140413.2041)
 -->
<!-- Title: %3 Pages: 1 -->
<svg width="576pt" height="118pt"
 viewBox="0.00 0.00 576.00 118.12" xmlns="http://www.w3.org/2000/svg" xmlns:xlink="http://www.w3.org/1999/xlink">
<g id="graph0" class="graph" transform="scale(0.435876 0.435876) rotate(0) translate(4 267)">
<title>%3</title>
<polygon fill="white" stroke="none" points="-4,4 -4,-267 1317.48,-267 1317.48,4 -4,4"/>
<g id="clust1" class="cluster"><title>cluster_legend_wrapper</title>
</g>
<g id="clust2" class="cluster"><title>cluster_legend</title>
<polygon fill="none" stroke="black" points="1119.48,-85 1119.48,-247 1297.48,-247 1297.48,-85 1119.48,-85"/>
<text text-anchor="middle" x="1208.48" y="-231.8" font-family="Times,serif" font-size="14.00">Legend</text>
</g>
<!-- maxscale_jobs/include/job_branches/on_push_maxscale_branches.yaml -->
<g id="node1" class="node"><title>maxscale_jobs/include/job_branches/on_push_maxscale_branches.yaml</title>
<ellipse fill="none" stroke="black" cx="266.476" cy="-18" rx="266.453" ry="18"/>
<text text-anchor="middle" x="266.476" y="-14.3" font-family="Times,serif" font-size="14.00">maxscale_jobs/include/job_branches/on_push_maxscale_branches.yaml</text>
</g>
<!-- maxscale_jobs/include/branches_list.yaml -->
<g id="node2" class="node"><title>maxscale_jobs/include/branches_list.yaml</title>
<ellipse fill="none" stroke="black" cx="522.476" cy="-111" rx="160.572" ry="18"/>
<text text-anchor="middle" x="522.476" y="-107.3" font-family="Times,serif" font-size="14.00">maxscale_jobs/include/branches_list.yaml</text>
</g>
<!-- maxscale_jobs/include/branches_list.yaml&#45;&gt;maxscale_jobs/include/job_branches/on_push_maxscale_branches.yaml -->
<g id="edge2" class="edge"><title>maxscale_jobs/include/branches_list.yaml&#45;&gt;maxscale_jobs/include/job_branches/on_push_maxscale_branches.yaml</title>
<path fill="none" stroke="green" d="M476.709,-93.731C433.743,-78.4581 369.341,-55.5651 323.146,-39.1445"/>
<polygon fill="green" stroke="green" points="324.174,-35.7954 313.58,-35.7438 321.83,-42.3911 324.174,-35.7954"/>
<text text-anchor="start" x="402.476" y="-58.8" font-family="Times,serif" font-weight="bold" font-size="14.00">include</text>
</g>
<!-- maxscale_jobs/include/job_branches/run_test_branches.yaml -->
<g id="node3" class="node"><title>maxscale_jobs/include/job_branches/run_test_branches.yaml</title>
<ellipse fill="none" stroke="black" cx="778.476" cy="-18" rx="227.46" ry="18"/>
<text text-anchor="middle" x="778.476" y="-14.3" font-family="Times,serif" font-size="14.00">maxscale_jobs/include/job_branches/run_test_branches.yaml</text>
</g>
<!-- maxscale_jobs/include/branches_list.yaml&#45;&gt;maxscale_jobs/include/job_branches/run_test_branches.yaml -->
<g id="edge1" class="edge"><title>maxscale_jobs/include/branches_list.yaml&#45;&gt;maxscale_jobs/include/job_branches/run_test_branches.yaml</title>
<path fill="none" stroke="green" d="M568.244,-93.731C611.21,-78.4581 675.612,-55.5651 721.806,-39.1445"/>
<polygon fill="green" stroke="green" points="723.123,-42.3911 731.373,-35.7438 720.778,-35.7954 723.123,-42.3911"/>
<text text-anchor="start" x="673.476" y="-58.8" font-family="Times,serif" font-weight="bold" font-size="14.00">include</text>
</g>
<!-- maxscale_jobs/print_branch_list.yaml -->
<g id="node4" class="node"><title>maxscale_jobs/print_branch_list.yaml</title>
<ellipse fill="none" stroke="black" cx="790.476" cy="-198" rx="145.674" ry="18"/>
<text text-anchor="middle" x="790.476" y="-194.3" font-family="Times,serif" font-size="14.00">maxscale_jobs/print_branch_list.yaml</text>
</g>
<!-- maxscale_jobs/print_branch_list.yaml&#45;&gt;maxscale_jobs/include/branches_list.yaml -->
<g id="edge3" class="edge"><title>maxscale_jobs/print_branch_list.yaml&#45;&gt;maxscale_jobs/include/branches_list.yaml</title>
<path fill="none" stroke="green" d="M740.068,-181.012C695.618,-166.914 630.738,-146.337 583.393,-131.321"/>
<polygon fill="green" stroke="green" points="584.16,-127.892 573.57,-128.205 582.044,-134.565 584.16,-127.892"/>
<text text-anchor="start" x="673.476" y="-151.8" font-family="Times,serif" font-weight="bold" font-size="14.00">include</text>
</g>
<!-- maxscale_jobs/include/slave_for_branches_jobs.yaml -->
<g id="node5" class="node"><title>maxscale_jobs/include/slave_for_branches_jobs.yaml</title>
<ellipse fill="none" stroke="black" cx="902.476" cy="-111" rx="201.464" ry="18"/>
<text text-anchor="middle" x="902.476" y="-107.3" font-family="Times,serif" font-size="14.00">maxscale_jobs/include/slave_for_branches_jobs.yaml</text>
</g>
<!-- maxscale_jobs/print_branch_list.yaml&#45;&gt;maxscale_jobs/include/slave_for_branches_jobs.yaml -->
<g id="edge4" class="edge"><title>maxscale_jobs/print_branch_list.yaml&#45;&gt;maxscale_jobs/include/slave_for_branches_jobs.yaml</title>
<path fill="none" stroke="green" d="M812.604,-180.207C829.597,-167.31 853.255,-149.355 872.033,-135.104"/>
<polygon fill="green" stroke="green" points="874.162,-137.883 880.011,-129.049 869.93,-132.307 874.162,-137.883"/>
<text text-anchor="start" x="853.476" y="-151.8" font-family="Times,serif" font-weight="bold" font-size="14.00">include</text>
</g>
<!-- include&#45;raw&#45;1 -->
<g id="node6" class="node"><title>include&#45;raw&#45;1</title>
<ellipse fill="none" stroke="black" cx="1226.48" cy="-198" rx="27" ry="18"/>
</g>
<!-- include&#45;raw&#45;2 -->
<g id="node7" class="node"><title>include&#45;raw&#45;2</title>
<ellipse fill="none" stroke="black" cx="1226.48" cy="-111" rx="27" ry="18"/>
</g>
<!-- include&#45;raw&#45;1&#45;&gt;include&#45;raw&#45;2 -->
<g id="edge5" class="edge"><title>include&#45;raw&#45;1&#45;&gt;include&#45;raw&#45;2</title>
<path fill="none" stroke="red" d="M1226.48,-179.799C1226.48,-168.163 1226.48,-152.548 1226.48,-139.237"/>
<polygon fill="red" stroke="red" points="1229.98,-139.175 1226.48,-129.175 1222.98,-139.175 1229.98,-139.175"/>
<text text-anchor="middle" x="1262.98" y="-150.8" font-family="Times,serif" font-size="14.00"> &#160;include&#45;raw</text>
</g>
<!-- include&#45;1 -->
<g id="node8" class="node"><title>include&#45;1</title>
<ellipse fill="none" stroke="black" cx="1154.48" cy="-198" rx="27" ry="18"/>
</g>
<!-- include&#45;2 -->
<g id="node9" class="node"><title>include&#45;2</title>
<ellipse fill="none" stroke="black" cx="1154.48" cy="-111" rx="27" ry="18"/>
</g>
<!-- include&#45;1&#45;&gt;include&#45;2 -->
<g id="edge6" class="edge"><title>include&#45;1&#45;&gt;include&#45;2</title>
<path fill="none" stroke="green" d="M1154.48,-179.799C1154.48,-168.163 1154.48,-152.548 1154.48,-139.237"/>
<polygon fill="green" stroke="green" points="1157.98,-139.175 1154.48,-129.175 1150.98,-139.175 1157.98,-139.175"/>
<text text-anchor="middle" x="1178.48" y="-150.8" font-family="Times,serif" font-size="14.00"> &#160;include</text>
</g>
</g>
</svg>
