<?xml version="1.0" encoding="UTF-8" standalone="no"?>
<!DOCTYPE svg PUBLIC "-//W3C//DTD SVG 1.1//EN"
 "http://www.w3.org/Graphics/SVG/1.1/DTD/svg11.dtd">
<!-- Generated by graphviz version 2.38.0 (20140413.2041)
 -->
<!-- Title: %3 Pages: 1 -->
<svg width="562pt" height="260pt"
 viewBox="0.00 0.00 562.43 260.00" xmlns="http://www.w3.org/2000/svg" xmlns:xlink="http://www.w3.org/1999/xlink">
<g id="graph0" class="graph" transform="scale(1 1) rotate(0) translate(4 256)">
<title>%3</title>
<polygon fill="white" stroke="none" points="-4,4 -4,-256 558.426,-256 558.426,4 -4,4"/>
<!-- maxscale_jobs/build.yaml -->
<g id="node1" class="node"><title>maxscale_jobs/build.yaml</title>
<ellipse fill="none" stroke="red" cx="254.79" cy="-234" rx="103.982" ry="18"/>
<text text-anchor="middle" x="254.79" y="-230.3" font-family="Times,serif" font-size="14.00">maxscale_jobs/build.yaml</text>
</g>
<!-- maxscale_jobs/cleanup.yaml -->
<g id="node2" class="node"><title>maxscale_jobs/cleanup.yaml</title>
<ellipse fill="none" stroke="black" cx="254.79" cy="-162" rx="113.18" ry="18"/>
<text text-anchor="middle" x="254.79" y="-158.3" font-family="Times,serif" font-size="14.00">maxscale_jobs/cleanup.yaml</text>
</g>
<!-- maxscale_jobs/build.yaml&#45;&gt;maxscale_jobs/cleanup.yaml -->
<g id="edge1" class="edge"><title>maxscale_jobs/build.yaml&#45;&gt;maxscale_jobs/cleanup.yaml</title>
<path fill="none" stroke="green" d="M254.79,-215.697C254.79,-207.983 254.79,-198.712 254.79,-190.112"/>
<polygon fill="green" stroke="green" points="258.29,-190.104 254.79,-180.104 251.29,-190.104 258.29,-190.104"/>
</g>
<!-- maxscale_jobs/destroy.yaml -->
<g id="node3" class="node"><title>maxscale_jobs/destroy.yaml</title>
<ellipse fill="none" stroke="black" cx="111.79" cy="-90" rx="111.581" ry="18"/>
<text text-anchor="middle" x="111.79" y="-86.3" font-family="Times,serif" font-size="14.00">maxscale_jobs/destroy.yaml</text>
</g>
<!-- maxscale_jobs/cleanup.yaml&#45;&gt;maxscale_jobs/destroy.yaml -->
<g id="edge2" class="edge"><title>maxscale_jobs/cleanup.yaml&#45;&gt;maxscale_jobs/destroy.yaml</title>
<path fill="none" stroke="blue" d="M221.624,-144.765C201.643,-134.984 175.993,-122.428 154.506,-111.91"/>
<polygon fill="blue" stroke="blue" points="155.793,-108.643 145.272,-107.39 152.715,-114.93 155.793,-108.643"/>
</g>
<!-- maxscale_jobs/smart_remove_lock.yaml -->
<g id="node5" class="node"><title>maxscale_jobs/smart_remove_lock.yaml</title>
<ellipse fill="none" stroke="black" cx="397.79" cy="-90" rx="156.772" ry="18"/>
<text text-anchor="middle" x="397.79" y="-86.3" font-family="Times,serif" font-size="14.00">maxscale_jobs/smart_remove_lock.yaml</text>
</g>
<!-- maxscale_jobs/cleanup.yaml&#45;&gt;maxscale_jobs/smart_remove_lock.yaml -->
<g id="edge3" class="edge"><title>maxscale_jobs/cleanup.yaml&#45;&gt;maxscale_jobs/smart_remove_lock.yaml</title>
<path fill="none" stroke="blue" d="M287.957,-144.765C307.793,-135.054 333.218,-122.608 354.61,-112.137"/>
<polygon fill="blue" stroke="blue" points="356.368,-115.174 363.81,-107.633 353.29,-108.886 356.368,-115.174"/>
</g>
<!-- maxscale_jobs/remove_lock.yaml -->
<g id="node4" class="node"><title>maxscale_jobs/remove_lock.yaml</title>
<ellipse fill="none" stroke="black" cx="397.79" cy="-18" rx="131.877" ry="18"/>
<text text-anchor="middle" x="397.79" y="-14.3" font-family="Times,serif" font-size="14.00">maxscale_jobs/remove_lock.yaml</text>
</g>
<!-- maxscale_jobs/smart_remove_lock.yaml&#45;&gt;maxscale_jobs/remove_lock.yaml -->
<g id="edge4" class="edge"><title>maxscale_jobs/smart_remove_lock.yaml&#45;&gt;maxscale_jobs/remove_lock.yaml</title>
<path fill="none" stroke="blue" d="M397.79,-71.6966C397.79,-63.9827 397.79,-54.7125 397.79,-46.1124"/>
<polygon fill="blue" stroke="blue" points="401.29,-46.1043 397.79,-36.1043 394.29,-46.1044 401.29,-46.1043"/>
</g>
</g>
</svg>
