<?xml version="1.0" encoding="UTF-8" standalone="no"?>
<!DOCTYPE svg PUBLIC "-//W3C//DTD SVG 1.1//EN"
 "http://www.w3.org/Graphics/SVG/1.1/DTD/svg11.dtd">
<!-- Generated by graphviz version 2.38.0 (20140413.2041)
 -->
<!-- Title: %3 Pages: 1 -->
<svg width="576pt" height="118pt"
 viewBox="0.00 0.00 576.00 118.26" xmlns="http://www.w3.org/2000/svg" xmlns:xlink="http://www.w3.org/1999/xlink">
<g id="graph0" class="graph" transform="scale(0.482691 0.482691) rotate(0) translate(4 241)">
<title>%3</title>
<polygon fill="white" stroke="none" points="-4,4 -4,-241 1189.31,-241 1189.31,4 -4,4"/>
<g id="clust1" class="cluster"><title>cluster_legend_wrapper</title>
</g>
<g id="clust2" class="cluster"><title>cluster_legend</title>
<polygon fill="none" stroke="black" points="68.9908,-92 68.9908,-221 456.072,-221 456.072,-92 68.9908,-92"/>
<text text-anchor="middle" x="262.531" y="-205.8" font-family="Times,serif" font-size="14.00">Legend</text>
</g>
<!-- maxscale_jobs/build.yaml -->
<g id="node1" class="node"><title>maxscale_jobs/build.yaml</title>
<ellipse fill="none" stroke="red" cx="103.991" cy="-58" rx="103.982" ry="18"/>
<text text-anchor="middle" x="103.991" y="-54.3" font-family="Times,serif" font-size="14.00">maxscale_jobs/build.yaml</text>
</g>
<!-- maxscale_jobs/cleanup.yaml -->
<g id="node2" class="node"><title>maxscale_jobs/cleanup.yaml</title>
<ellipse fill="none" stroke="black" cx="421.072" cy="-58" rx="113.18" ry="18"/>
<text text-anchor="middle" x="421.072" y="-54.3" font-family="Times,serif" font-size="14.00">maxscale_jobs/cleanup.yaml</text>
</g>
<!-- maxscale_jobs/build.yaml&#45;&gt;maxscale_jobs/cleanup.yaml -->
<g id="edge1" class="edge"><title>maxscale_jobs/build.yaml&#45;&gt;maxscale_jobs/cleanup.yaml</title>
<path fill="none" stroke="green" d="M208.16,-58C236.737,-58 268.035,-58 297.597,-58"/>
<polygon fill="green" stroke="green" points="297.974,-61.5001 307.974,-58 297.974,-54.5001 297.974,-61.5001"/>
</g>
<!-- maxscale_jobs/destroy.yaml -->
<g id="node3" class="node"><title>maxscale_jobs/destroy.yaml</title>
<ellipse fill="none" stroke="black" cx="727.798" cy="-72" rx="111.581" ry="18"/>
<text text-anchor="middle" x="727.798" y="-68.3" font-family="Times,serif" font-size="14.00">maxscale_jobs/destroy.yaml</text>
</g>
<!-- maxscale_jobs/cleanup.yaml&#45;&gt;maxscale_jobs/destroy.yaml -->
<g id="edge2" class="edge"><title>maxscale_jobs/cleanup.yaml&#45;&gt;maxscale_jobs/destroy.yaml</title>
<path fill="none" stroke="blue" d="M529.935,-62.9556C555.896,-64.1483 583.746,-65.4278 610.089,-66.6381"/>
<polygon fill="blue" stroke="blue" points="609.955,-70.1355 620.105,-67.0982 610.276,-63.1429 609.955,-70.1355"/>
</g>
<!-- maxscale_jobs/smart_remove_lock.yaml -->
<g id="node5" class="node"><title>maxscale_jobs/smart_remove_lock.yaml</title>
<ellipse fill="none" stroke="black" cx="727.798" cy="-18" rx="156.772" ry="18"/>
<text text-anchor="middle" x="727.798" y="-14.3" font-family="Times,serif" font-size="14.00">maxscale_jobs/smart_remove_lock.yaml</text>
</g>
<!-- maxscale_jobs/cleanup.yaml&#45;&gt;maxscale_jobs/smart_remove_lock.yaml -->
<g id="edge3" class="edge"><title>maxscale_jobs/cleanup.yaml&#45;&gt;maxscale_jobs/smart_remove_lock.yaml</title>
<path fill="none" stroke="blue" d="M508.986,-46.5911C541.568,-42.3142 579.081,-37.3901 613.693,-32.8467"/>
<polygon fill="blue" stroke="blue" points="614.391,-36.2852 623.851,-31.5134 613.48,-29.3447 614.391,-36.2852"/>
</g>
<!-- maxscale_jobs/remove_lock.yaml -->
<g id="node4" class="node"><title>maxscale_jobs/remove_lock.yaml</title>
<ellipse fill="none" stroke="black" cx="1053.37" cy="-18" rx="131.877" ry="18"/>
<text text-anchor="middle" x="1053.37" y="-14.3" font-family="Times,serif" font-size="14.00">maxscale_jobs/remove_lock.yaml</text>
</g>
<!-- maxscale_jobs/smart_remove_lock.yaml&#45;&gt;maxscale_jobs/remove_lock.yaml -->
<g id="edge4" class="edge"><title>maxscale_jobs/smart_remove_lock.yaml&#45;&gt;maxscale_jobs/remove_lock.yaml</title>
<path fill="none" stroke="blue" d="M884.898,-18C893.61,-18 902.344,-18 910.998,-18"/>
<polygon fill="blue" stroke="blue" points="911.115,-21.5001 921.115,-18 911.115,-14.5001 911.115,-21.5001"/>
</g>
<!-- publishers&#45;1 -->
<g id="node6" class="node"><title>publishers&#45;1</title>
<ellipse fill="none" stroke="black" cx="103.991" cy="-172" rx="27" ry="18"/>
</g>
<!-- publishers&#45;2 -->
<g id="node7" class="node"><title>publishers&#45;2</title>
<ellipse fill="none" stroke="black" cx="421.072" cy="-172" rx="27" ry="18"/>
</g>
<!-- publishers&#45;1&#45;&gt;publishers&#45;2 -->
<g id="edge5" class="edge"><title>publishers&#45;1&#45;&gt;publishers&#45;2</title>
<path fill="none" stroke="green" d="M131.043,-172C187.189,-172 319.698,-172 383.922,-172"/>
<polygon fill="green" stroke="green" points="383.989,-175.5 393.989,-172 383.989,-168.5 383.989,-175.5"/>
<text text-anchor="middle" x="257.982" y="-175.8" font-family="Times,serif" font-size="14.00"> &#160;publishers</text>
</g>
<!-- builders&#45;1 -->
<g id="node8" class="node"><title>builders&#45;1</title>
<ellipse fill="none" stroke="black" cx="103.991" cy="-118" rx="27" ry="18"/>
</g>
<!-- builders&#45;2 -->
<g id="node9" class="node"><title>builders&#45;2</title>
<ellipse fill="none" stroke="black" cx="421.072" cy="-118" rx="27" ry="18"/>
</g>
<!-- builders&#45;1&#45;&gt;builders&#45;2 -->
<g id="edge6" class="edge"><title>builders&#45;1&#45;&gt;builders&#45;2</title>
<path fill="none" stroke="blue" d="M131.043,-118C187.189,-118 319.698,-118 383.922,-118"/>
<polygon fill="blue" stroke="blue" points="383.989,-121.5 393.989,-118 383.989,-114.5 383.989,-121.5"/>
<text text-anchor="middle" x="257.982" y="-121.8" font-family="Times,serif" font-size="14.00"> &#160;builders</text>
</g>
</g>
</svg>
